<?xml version="1.0" standalone="no"?>
<!DOCTYPE svg PUBLIC "-//W3C//DTD SVG 20010904//EN"
 "http://www.w3.org/TR/2001/REC-SVG-20010904/DTD/svg10.dtd">
<svg version="1.0" xmlns="http://www.w3.org/2000/svg"
 width="1080.000000pt" height="1080.000000pt" viewBox="0 0 1080.000000 1080.000000"
 preserveAspectRatio="xMidYMid meet">
<metadata>
Created by potrace 1.14, written by Peter Selinger 2001-2017
</metadata>
<g transform="translate(0.000000,1080.000000) scale(0.100000,-0.100000)"
fill="#000000" stroke="none">
<path d="M4831 9350 c-67 -5 -130 -12 -140 -15 -18 -8 -41 -12 -116 -19 -133
-15 -212 -27 -345 -55 -80 -17 -156 -35 -170 -41 -14 -6 -97 -32 -185 -59 -88
-27 -187 -60 -220 -73 -33 -14 -98 -40 -145 -58 -196 -75 -570 -275 -740 -395
-16 -11 -57 -40 -92 -65 -297 -209 -602 -503 -833 -804 -80 -103 -148 -196
-181 -246 -20 -30 -60 -91 -89 -135 -69 -104 -135 -228 -225 -418 -36 -77 -57
-112 -63 -104 -5 7 -6 4 -2 -9 7 -27 -4 -56 -18 -47 -6 3 -7 1 -3 -6 8 -13
-26 -125 -55 -181 -10 -19 -34 -91 -53 -160 -20 -73 -36 -117 -39 -105 -2 11
-3 7 -1 -9 5 -39 -25 -148 -39 -139 -5 3 -8 2 -5 -3 4 -5 -4 -72 -17 -149 -13
-77 -27 -173 -30 -212 -4 -40 -10 -73 -14 -73 -3 0 -4 -21 -2 -46 2 -28 -1
-44 -6 -41 -6 4 -8 -25 -5 -73 3 -45 1 -80 -5 -80 -5 0 -8 -28 -6 -62 10 -240
9 -638 -1 -649 -8 -9 -8 -10 1 -5 9 5 13 0 13 -15 0 -12 4 -38 9 -58 5 -20 15
-81 21 -136 15 -139 49 -310 70 -360 5 -11 12 -36 16 -55 14 -75 76 -286 98
-339 13 -31 36 -90 51 -131 89 -238 318 -658 468 -857 196 -261 381 -465 597
-659 58 -52 117 -106 131 -118 39 -36 182 -144 288 -218 405 -283 889 -499
1396 -622 310 -76 453 -97 805 -117 272 -15 696 13 950 62 129 25 509 123 560
144 30 13 78 30 105 38 115 35 361 143 530 233 109 58 365 210 375 223 3 3 32
24 65 45 67 44 213 154 260 195 17 14 44 37 60 49 38 29 266 244 314 296 20
21 51 55 70 75 18 20 50 56 70 81 20 25 44 52 53 60 37 33 275 362 322 445 16
28 35 58 43 67 19 21 110 188 163 298 78 160 94 191 102 197 5 2 2 -11 -6 -31
-8 -20 -11 -36 -6 -36 5 0 14 16 21 35 7 19 18 35 25 35 7 0 12 15 12 36 0 38
-18 35 -21 -4 -1 -12 -5 -18 -10 -13 -4 4 21 86 56 182 35 96 76 228 91 294
16 66 39 165 52 220 34 142 53 249 60 335 4 41 9 77 13 80 3 3 6 30 6 60 2
138 17 577 21 598 3 15 1 21 -6 17 -6 -4 -10 18 -10 63 0 99 -28 372 -50 477
-65 323 -106 478 -183 688 l-55 149 40 36 c22 21 48 42 58 47 10 6 38 28 62
50 24 22 60 52 79 66 19 15 48 40 65 56 17 17 40 35 50 42 18 10 17 12 -13 38
-18 16 -80 64 -139 108 -111 84 -225 174 -283 225 -36 32 -61 39 -62 18 0 -7
0 -61 1 -120 l1 -108 -26 0 c-15 0 -24 4 -20 10 3 5 1 18 -4 27 -6 10 -11 12
-11 6 0 -7 -10 -13 -21 -13 -19 0 -20 -2 -8 -16 12 -14 11 -16 -6 -13 -12 3
-30 24 -45 54 l-25 50 -5 385 c-6 408 -6 412 -56 478 -37 48 -90 79 -167 96
-59 14 -74 14 -121 2 -89 -23 -137 -56 -194 -131 -15 -19 -25 -26 -28 -18 -4
10 -11 10 -26 2 -17 -9 -27 -3 -72 38 -85 79 -161 146 -202 179 -111 88 -213
164 -221 164 -6 0 -18 9 -28 20 -10 11 -53 41 -94 67 -42 25 -112 68 -156 95
-145 88 -497 256 -650 310 -16 6 -48 19 -70 29 -22 9 -94 34 -160 54 -66 20
-154 47 -195 60 -115 37 -373 87 -535 105 -44 5 -116 14 -160 19 -112 15 -575
21 -724 11z m794 -344 c66 -8 157 -22 202 -31 111 -21 493 -121 540 -141 21
-8 86 -33 144 -54 146 -52 362 -150 504 -228 118 -65 328 -191 353 -213 7 -6
44 -32 80 -57 75 -52 121 -89 256 -207 170 -147 269 -270 322 -399 19 -44 39
-83 46 -88 16 -10 159 -10 174 0 6 4 13 15 17 25 4 10 11 15 17 12 5 -3 10 -2
10 3 0 6 9 8 21 5 13 -4 27 2 42 18 l22 24 5 -25 c3 -14 7 16 11 65 5 80 10
-74 14 -387 0 -42 -1 -43 -35 -48 -19 -3 -88 -3 -152 0 -65 3 -119 1 -121 -3
-1 -4 -10 13 -19 38 -10 25 -13 43 -7 39 19 -11 -8 29 -36 55 -14 13 -25 27
-25 32 0 5 -6 9 -14 9 -7 0 -20 8 -27 17 -12 14 -12 16 0 8 10 -6 12 -4 7 4
-5 7 -14 10 -22 7 -8 -3 -14 -1 -14 3 0 14 -65 49 -132 71 -114 37 -287 21
-384 -36 -66 -39 -138 -115 -167 -176 -15 -31 -32 -60 -38 -64 -6 -3 -283 -7
-615 -8 l-604 -1 0 135 0 136 28 16 c15 10 42 31 60 48 31 30 32 33 32 121 l0
89 -180 0 c-180 0 -181 0 -248 31 -37 17 -114 50 -172 73 -58 24 -142 61 -187
82 l-83 39 0 161 0 161 48 26 c27 14 64 39 84 54 20 15 57 40 82 55 25 15 46
31 46 36 0 4 -15 16 -32 26 -18 11 -62 38 -98 61 -36 23 -80 48 -97 55 -18 7
-33 17 -33 22 0 5 4 7 9 3 5 -3 3 8 -5 24 l-15 30 -102 -2 -102 -2 -3 -356 -2
-356 -53 -23 c-28 -12 -97 -42 -152 -65 -55 -23 -140 -62 -190 -86 l-90 -44
-195 -5 -195 -5 -8 -75 c-6 -51 -5 -76 2 -78 6 -2 11 -10 11 -18 0 -8 7 -17
15 -20 8 -4 15 -12 15 -20 0 -8 4 -14 10 -14 5 0 25 -14 45 -31 l35 -31 0
-107 c-1 -73 -5 -112 -14 -124 -13 -16 -41 -18 -372 -19 -198 -1 -408 0 -468
2 l-109 3 -32 66 c-31 63 -105 143 -168 178 -86 49 -248 67 -352 39 -125 -33
-229 -117 -280 -225 l-28 -59 -121 -2 c-67 -1 -138 -3 -158 -4 l-38 -2 0 167
0 167 96 108 c202 227 453 460 622 578 113 77 346 226 356 226 4 0 36 17 70
37 100 61 319 161 504 229 155 57 245 84 512 155 95 25 273 54 415 68 61 6
126 13 145 15 85 10 652 -4 765 -18z m2725 -1165 c-11 -23 -23 -41 -26 -41 -3
0 -3 3 -1 8 2 4 12 24 22 45 10 21 20 36 22 33 2 -2 -5 -22 -17 -45z m-4193
-153 c-3 -8 -6 -5 -6 6 -1 11 2 17 5 13 3 -3 4 -12 1 -19z m792 -292 c-6 -7
-111 -61 -133 -69 -20 -8 -20 -8 -1 13 25 28 52 42 95 51 19 4 37 7 39 8 2 0
2 -1 0 -3z m422 -6 c12 0 17 -4 13 -11 -4 -7 0 -9 14 -5 15 5 30 -4 61 -37 62
-65 72 -83 78 -140 9 -88 12 -84 -316 -425 -46 -48 -71 -69 -66 -54 5 18 2 22
-15 22 -17 0 -21 -4 -16 -17 6 -16 -233 221 -320 318 -35 38 -54 71 -54 91 0
7 9 -5 19 -27 17 -36 18 -37 17 -13 0 16 -4 28 -8 28 -18 0 -6 39 13 45 24 8
78 64 79 82 0 6 10 20 23 30 13 10 26 26 30 36 4 12 17 17 44 17 28 0 34 3 23
10 -8 5 -10 10 -5 11 6 0 -1 5 -15 9 -25 8 -25 8 5 10 27 1 28 2 10 11 -15 7
-12 8 15 4 32 -5 86 -43 75 -53 -3 -3 10 -15 28 -27 l32 -23 51 49 c29 26 62
50 75 53 13 3 33 7 44 9 11 3 26 3 33 1 8 -2 23 -4 33 -4z m-2437 -134 c35
-15 70 -57 87 -105 13 -36 -2 -95 -33 -134 -46 -57 -157 -56 -203 1 -25 32
-37 62 -25 62 6 0 10 6 10 14 0 14 68 66 88 66 7 0 12 9 12 21 0 12 8 23 20
26 27 7 25 20 -3 27 -27 6 -82 -7 -105 -26 -13 -11 -14 -10 -4 7 10 19 36 36
72 48 27 9 50 7 84 -7z m4769 3 c82 -22 124 -139 77 -216 -50 -83 -164 -94
-225 -22 -24 29 -34 56 -16 45 4 -3 13 6 20 20 6 14 15 23 20 19 5 -3 22 6 38
19 16 13 46 28 68 32 32 6 36 9 22 18 -10 8 -13 17 -6 27 5 8 9 22 9 32 0 27
-75 23 -130 -9 l-45 -26 24 26 c22 23 63 42 96 45 6 1 27 -4 48 -10z m-5873
-269 c10 -6 11 -10 3 -10 -7 0 -13 -12 -13 -27 0 -22 2 -25 10 -13 6 10 10
-48 11 -175 3 -335 5 -347 70 -381 66 -34 152 -14 203 46 l26 32 0 269 0 269
158 -1 c86 -1 148 -3 137 -6 -28 -7 -43 -23 -21 -23 9 0 14 -4 11 -10 -3 -5 1
-10 9 -10 9 0 16 5 16 11 0 7 16 -19 35 -58 40 -80 134 -170 211 -204 106 -45
275 -43 379 5 60 27 158 109 186 155 24 40 37 35 16 -6 -8 -15 -12 -34 -10
-40 3 -8 -4 -13 -15 -13 -11 0 -22 -7 -26 -15 -3 -9 0 -15 8 -15 17 0 66 56
66 76 0 8 7 14 15 14 14 0 19 12 16 33 -1 4 10 13 24 19 14 6 25 17 25 24 0 7
6 11 14 8 7 -3 16 2 19 11 5 12 -1 15 -36 12 -23 -1 -48 -6 -54 -10 -14 -9
-17 2 -7 27 5 14 58 16 488 16 264 0 476 -4 469 -8 -11 -7 -17 -69 -13 -137 1
-26 3 -28 10 -10 6 13 9 -31 8 -122 l-1 -143 -152 0 c-149 0 -153 0 -160 -22
-4 -13 -7 -26 -6 -30 0 -3 2 -165 5 -360 3 -265 1 -355 -7 -356 -7 0 -169 -2
-362 -5 l-350 -4 -3 -201 -2 -202 -350 0 c-273 0 -350 -3 -350 -12 0 -7 0
-435 0 -950 0 -891 -1 -938 -17 -938 -161 -4 -788 2 -795 6 -17 11 -50 93 -42
106 4 6 3 8 -3 5 -21 -13 -161 338 -224 558 -20 73 -77 323 -103 460 -27 136
-53 482 -50 650 4 190 25 469 43 555 64 313 109 500 135 561 22 49 19 28 -5
-46 -11 -36 -19 -72 -16 -82 2 -10 7 0 12 24 4 24 12 40 17 37 6 -4 8 1 4 13
-4 12 -1 25 9 33 8 7 15 25 15 41 0 16 5 29 10 29 6 0 10 8 10 18 0 11 9 29
20 42 16 18 18 26 8 33 -10 7 -10 10 0 14 6 2 12 13 12 24 0 10 6 19 13 19 6
0 13 12 14 27 0 14 8 30 17 35 9 5 16 20 16 33 0 16 6 25 15 25 13 0 20 19 16
43 -1 5 3 6 8 3 11 -7 61 43 61 61 0 7 4 13 8 13 5 0 14 11 20 25 9 19 9 25 0
25 -6 0 -9 3 -5 6 3 3 2 17 -3 29 -7 19 -5 25 8 28 11 3 9 5 -7 6 -14 1 -33
-10 -48 -26 l-24 -28 16 40 c9 21 21 43 28 47 17 11 79 10 97 -2z m5372 2
c-16 -11 -4 -45 14 -38 17 6 38 -30 30 -50 -3 -8 -2 -13 2 -10 4 2 20 -15 36
-39 33 -53 142 -141 199 -161 113 -40 263 -36 362 10 27 13 79 46 114 75 66
53 78 60 64 39 -17 -29 -57 -68 -69 -68 -7 0 -14 -4 -16 -9 -1 -5 -19 -18 -38
-30 l-35 -21 31 0 c19 0 34 6 38 15 3 8 12 15 20 15 7 0 16 7 20 15 3 8 13 15
23 15 15 0 16 2 3 10 -12 8 -10 10 11 10 27 0 87 63 81 84 -2 6 0 8 4 4 11
-12 33 24 34 54 0 22 7 31 33 42 l32 14 -42 -4 c-29 -2 -43 0 -44 9 0 6 -5 1
-10 -12 -12 -31 -19 -24 -12 12 l5 27 232 -1 c127 -1 223 -3 214 -6 -22 -5
-22 -13 -5 -38 10 -13 16 -15 21 -6 13 20 43 -30 93 -151 25 -62 50 -118 54
-124 11 -14 61 -158 94 -269 14 -49 30 -99 36 -110 14 -31 46 -168 69 -300 11
-66 25 -140 30 -165 15 -66 30 -203 42 -390 12 -180 2 -541 -13 -505 -7 14 -8
9 -5 -20 7 -70 -109 -746 -121 -708 -3 7 0 29 6 50 6 21 11 45 10 53 -1 27
-19 -44 -29 -115 -16 -119 -169 -532 -246 -661 -24 -41 -37 -43 -404 -38 -162
3 -325 4 -361 4 l-66 0 1 950 1 950 -352 0 -353 0 0 199 c0 189 -1 200 -19
206 -11 3 -170 5 -355 3 -184 -2 -337 0 -340 3 -3 3 -7 176 -8 385 l-3 379
-157 3 -158 3 0 209 0 210 608 0 c334 0 601 -4 594 -8z m-2925 -109 c-3 -10
-5 -2 -5 17 0 19 2 27 5 18 2 -10 2 -26 0 -35z m3794 24 c-10 -9 -11 -8 -5 6
3 10 9 15 12 12 3 -3 0 -11 -7 -18z m-6451 -177 c-12 -23 -23 -40 -25 -38 -3
2 5 23 17 46 11 24 23 41 25 38 2 -2 -5 -23 -17 -46z m-39 -93 c-6 -6 -11 -21
-11 -34 0 -13 -4 -23 -10 -23 -13 0 -13 -2 7 56 11 32 19 43 21 30 2 -10 -1
-23 -7 -29z m-45 -119 c-11 -44 -26 -74 -26 -51 0 14 32 105 35 101 2 -2 -2
-24 -9 -50z m3129 -9 c6 -8 10 -7 16 2 5 8 9 -30 9 -94 l0 -107 448 2 447 3 5
100 5 100 43 3 c23 2 55 1 72 -3 l29 -6 3 -97 3 -97 121 -3 120 -3 12 -33 c15
-40 16 -90 2 -81 -5 3 -10 1 -10 -4 0 -6 6 -12 13 -13 6 -1 -49 -5 -123 -8
l-135 -5 -3 -607 -2 -608 128 0 128 0 3 -51 c1 -34 -2 -49 -8 -44 -7 4 -11 -4
-11 -19 0 -22 -4 -26 -32 -26 l-31 0 24 21 c24 22 24 22 2 17 -12 -3 -24 -1
-26 6 -3 6 -10 -1 -17 -16 -7 -16 -17 -28 -22 -28 -4 0 -3 9 4 20 7 10 8 23 4
27 -5 4 -11 3 -13 -4 -2 -7 -11 -9 -20 -6 -12 5 -14 1 -8 -15 5 -19 2 -22 -19
-22 -14 0 -26 6 -27 13 0 6 -4 3 -9 -8 -8 -18 -9 -18 -10 5 -1 16 -4 20 -7 10
-4 -8 -12 -21 -20 -28 -11 -11 -13 -110 -11 -545 l3 -532 126 -3 c121 -2 127
-4 122 -22 -3 -11 0 -20 6 -20 7 0 11 -31 11 -91 0 -53 -4 -88 -9 -84 -5 3
-12 1 -16 -5 -7 -11 -151 -13 -297 -3 l-98 6 0 648 0 649 -23 5 c-13 4 -214 5
-448 3 l-424 -4 -5 -654 c-3 -360 -8 -648 -12 -640 -5 12 -7 12 -7 -2 -1 -15
-14 -17 -118 -13 -65 2 -155 3 -200 4 l-83 1 0 110 0 110 130 0 130 0 0 539 0
539 -22 6 c-13 3 -69 6 -125 6 -57 0 -103 2 -103 5 0 3 8 15 19 26 10 11 17
29 14 39 -4 17 0 18 49 16 29 -2 71 -6 93 -9 22 -4 32 -4 23 -1 -10 3 -18 13
-18 22 0 15 -2 15 -10 2 -5 -8 -10 -10 -10 -4 0 5 -17 11 -39 12 -21 2 -53 7
-71 12 -18 5 -36 7 -41 5 -4 -3 -10 -1 -14 5 -4 7 38 10 124 10 l131 0 0 610
0 610 -130 0 -130 0 2 38 c1 36 1 36 5 5 4 -32 5 -33 51 -32 28 1 37 4 22 6
-32 6 -41 22 -28 46 7 14 7 18 -2 12 -7 -4 -10 -2 -9 6 3 18 -11 49 -21 49 -5
0 -11 -12 -13 -27 -4 -26 -4 -26 -6 5 l-1 32 130 0 130 0 1 48 2 47 6 -40 c6
-37 7 -38 15 -15 4 14 8 29 7 33 -1 5 3 6 8 3 5 -4 11 -1 14 6 2 7 3 5 2 -4
-2 -9 3 -19 11 -22 8 -3 14 1 14 9 0 18 20 20 21 3 0 -7 4 -3 9 10 5 12 15 22
23 22 7 0 14 13 15 29 3 38 -34 63 -91 61 -55 -2 -59 -2 -53 8 8 14 123 15
131 1z m-118 -61 c-3 -8 -6 -5 -6 6 -1 11 2 17 5 13 3 -3 4 -12 1 -19z m-252
-1226 c13 3 30 1 37 -3 8 -6 -3 -9 -29 -9 l-43 0 2 193 3 192 2 -189 3 -188
25 4z m28 361 c-7 -2 -21 -2 -30 0 -10 3 -4 5 12 5 17 0 24 -2 18 -5z m36
-195 c0 -95 -4 -164 -8 -153 -7 20 -3 325 5 325 2 0 4 -78 3 -172z m1579 -75
c3 30 22 8 22 -26 0 -29 -1 -30 -15 -11 -13 18 -14 17 -15 -16 0 -34 1 -35 35
-34 19 1 35 -2 35 -7 0 -5 -18 -9 -40 -9 l-40 0 2 118 c2 111 2 113 8 42 4
-41 7 -67 8 -57z m-2303 7 c-3 -5 -26 -10 -51 -10 l-44 0 0 -65 c0 -45 4 -65
13 -66 6 0 31 -1 54 -3 48 -3 53 4 53 65 0 24 4 38 10 34 6 -3 10 -44 10 -91
l0 -84 135 7 c99 4 135 3 135 -5 0 -7 -15 -12 -32 -13 -28 -1 -30 -2 -10 -7
13 -4 23 -10 23 -14 -2 -23 0 -29 9 -23 6 4 10 -6 10 -24 0 -16 6 -32 13 -34
6 -3 -52 -6 -131 -6 -122 -1 -145 -4 -161 -18 -25 -25 -36 -57 -16 -49 9 3 15
0 15 -10 0 -8 -4 -12 -10 -9 -6 4 -10 -6 -10 -22 0 -15 -3 -65 -6 -110 -5 -57
-3 -83 4 -83 7 0 12 37 15 103 1 56 4 -136 5 -428 2 -573 5 -635 31 -635 14 0
14 -2 1 -11 -12 -9 -11 -9 5 -3 11 4 71 10 133 12 l114 4 -2 -24 c-1 -12 -2
-32 -1 -43 1 -17 3 -18 11 -5 7 11 10 -5 10 -51 0 -114 56 -104 -577 -100
-301 1 -549 4 -550 5 -2 1 -4 361 -5 799 l-3 797 345 2 345 3 3 110 3 110 55
3 c36 2 53 -1 49 -8z m2997 -149 c6 22 12 25 38 21 16 -2 30 -9 30 -15 0 -6 3
-7 7 -4 3 4 12 2 19 -4 16 -13 23 10 27 101 2 36 4 13 5 -52 l2 -118 348 0
c191 0 341 -4 334 -8 -8 -5 -15 -45 -19 -107 -5 -73 -3 -96 5 -91 9 5 12 -17
12 -84 0 -58 -4 -89 -10 -85 -7 4 -10 -57 -10 -174 0 -114 4 -181 10 -181 6 0
10 -7 10 -15 0 -8 -4 -15 -9 -15 -6 0 -6 -13 0 -32 5 -18 9 -76 8 -128 -1 -52
1 -227 6 -387 l8 -293 -571 0 -572 0 0 111 0 110 145 -3 c114 -2 146 0 150 10
3 8 5 292 5 633 l0 619 -150 0 c-142 0 -189 10 -120 25 31 7 38 23 18 43 -17
17 13 16 31 0 8 -8 11 -8 8 -2 -4 7 -1 12 6 11 6 0 44 1 82 3 l70 3 -45 9
c-25 5 -64 12 -87 15 -79 10 -44 22 70 25 l112 3 5 110 4 110 6 -95 c3 -64 7
-87 12 -69z m-655 102 c-3 -10 -5 -2 -5 17 0 19 2 27 5 18 2 -10 2 -26 0 -35z
m-1655 13 c3 -14 1 -31 -3 -38 -6 -8 -9 1 -9 25 0 42 6 48 12 13z m2135 -212
c-3 -3 -12 -4 -19 -1 -8 3 -5 6 6 6 11 1 17 -2 13 -5z m-140 -51 c-3 -10 -5
-4 -5 12 0 17 2 24 5 18 2 -7 2 -21 0 -30z m1130 -10 c-3 -10 -5 -4 -5 12 0
17 2 24 5 18 2 -7 2 -21 0 -30z m-3554 -579 c-1 -157 -4 -288 -7 -291 -3 -4
-6 125 -6 285 0 161 3 292 8 292 4 0 6 -129 5 -286z m2445 276 c-14 -9 -16
-38 -17 -252 -1 -133 -4 -244 -6 -247 -3 -2 -5 108 -5 246 0 137 3 253 7 256
3 4 13 7 22 7 14 -1 14 -2 -1 -10z m69 -402 c-1 -79 -3 -17 -3 137 0 154 2
218 3 143 2 -75 2 -201 0 -280z m-2440 -20 c-1 -73 -3 -14 -3 132 0 146 2 205
3 133 2 -73 2 -193 0 -265z m1001 252 c-14 -22 -24 -19 -15 5 4 8 11 15 17 15
6 0 6 -7 -2 -20z m284 8 c-8 -8 -12 -50 -12 -122 0 -76 3 -106 10 -96 13 20
13 4 0 -20 -6 -11 -6 -21 -1 -24 11 -7 2 -46 -10 -46 -10 0 -12 303 -2 313 3
4 11 7 17 7 6 0 5 -5 -2 -12z m-202 -161 l0 -143 -50 -3 -50 -2 2 73 c2 70 2
71 5 16 4 -56 18 -76 29 -40 3 9 8 24 10 32 4 11 7 12 13 2 11 -19 34 65 31
114 -4 52 -1 94 5 94 3 0 5 -64 5 -143z m277 66 c-2 -16 -4 -3 -4 27 0 30 2
43 4 28 2 -16 2 -40 0 -55z m0 -115 c-3 -8 -6 -5 -6 6 -1 11 2 17 5 13 3 -3 4
-12 1 -19z m0 -50 c-3 -8 -6 -5 -6 6 -1 11 2 17 5 13 3 -3 4 -12 1 -19z
m-1044 -65 c-9 -3 -14 -37 -15 -111 l-2 -107 -3 99 c-4 107 -1 126 19 125 10
0 10 -2 1 -6z m1667 3 c0 -3 -4 -8 -10 -11 -5 -3 -10 -1 -10 4 0 6 5 11 10 11
6 0 10 -2 10 -4z m-1593 -169 c-2 -23 -3 -1 -3 48 0 50 1 68 3 42 2 -26 2 -67
0 -90z m1993 97 c0 -2 -7 -4 -15 -4 -8 0 -15 4 -15 10 0 5 7 7 15 4 8 -4 15
-8 15 -10z m-393 -140 c-3 -3 -12 -4 -19 -1 -8 3 -5 6 6 6 11 1 17 -2 13 -5z
m-657 -614 l0 -530 -160 0 -160 0 0 530 0 530 160 0 160 0 0 -530z m-2342
-564 c40 -13 29 -55 -30 -112 -70 -67 -84 -75 -64 -36 9 17 16 39 16 48 0 10
7 26 17 36 23 25 9 34 -22 14 -34 -22 -32 -9 6 30 31 32 36 34 77 20z m-238
-206 c0 -6 -9 -18 -20 -27 -11 -10 -20 -23 -20 -30 0 -19 20 -27 33 -13 9 10
9 11 -1 5 -11 -6 -11 -3 0 14 7 12 21 21 31 21 10 0 31 7 47 15 17 9 30 11 30
6 0 -5 -7 -11 -15 -15 -8 -3 -15 -9 -15 -13 0 -5 44 -54 99 -110 99 -101 118
-137 87 -162 -19 -16 -55 -9 -74 14 -15 19 -15 19 1 4 19 -17 77 -14 77 3 0 6
-9 8 -20 5 -11 -3 -20 -1 -20 4 0 5 -7 9 -15 9 -8 0 -29 18 -46 40 -31 38 -58
48 -51 19 2 -8 -8 -3 -22 10 -14 14 -26 29 -27 35 0 6 -25 31 -55 55 -31 24
-58 50 -61 58 -3 8 5 25 17 39 25 25 40 31 40 14z m4174 -16 c35 -35 27 -124
-10 -110 -8 3 -12 2 -9 -4 4 -7 -598 -10 -1757 -10 -1675 0 -1839 3 -1781 26
7 3 10 11 7 19 -4 9 15 20 61 35 78 26 75 46 -7 43 -55 -2 -84 -21 -91 -57 -4
-17 -5 -16 -6 6 -1 18 8 33 25 47 l27 21 1763 0 c1588 0 1764 -2 1778 -16z
m411 -14 c-10 -11 -20 -18 -23 -15 -7 6 18 35 31 35 5 0 2 -9 -8 -20z m105
-41 c0 -25 -11 -49 -21 -49 -5 0 -4 9 3 20 10 15 10 27 1 52 -11 30 -11 31 2
14 8 -11 15 -28 15 -37z m-2811 -346 c0 -11 -3 -13 -6 -5 -2 6 -18 12 -35 12
-32 0 -54 -17 -52 -40 1 -8 2 -31 3 -50 2 -34 3 -34 13 -10 10 24 10 24 18 5
7 -15 9 -9 10 25 1 25 4 39 7 32 2 -6 9 -10 14 -6 5 3 10 -5 10 -18 1 -19 3
-18 9 7 5 19 8 -11 9 -87 1 -120 10 -148 36 -111 8 11 31 33 52 48 23 18 31
21 21 9 -10 -12 -18 -27 -18 -34 0 -7 -3 -11 -6 -7 -8 7 -34 -17 -34 -32 0
-16 20 -13 26 3 5 14 40 28 78 32 24 2 59 43 52 60 -3 7 12 30 33 51 38 38 61
83 42 83 -5 0 -24 -12 -42 -27 l-33 -28 39 53 39 52 95 0 94 0 -24 -26 c-13
-15 -72 -75 -131 -135 -60 -60 -108 -115 -108 -123 0 -7 17 -33 39 -57 99
-114 221 -262 221 -270 0 -5 -32 -9 -72 -9 -54 0 -69 3 -61 11 9 9 6 16 -10
29 -25 21 -44 16 -26 -6 6 -8 10 -17 7 -20 -3 -2 -18 12 -33 33 -22 29 -23 33
-7 19 12 -11 22 -17 22 -13 0 3 3 13 6 22 5 12 2 16 -12 13 -12 -2 -18 2 -16
11 3 12 0 12 -11 2 -12 -10 -20 -6 -40 20 -14 18 -22 39 -19 47 4 11 1 14 -11
9 -18 -7 -42 24 -29 38 4 5 2 5 -4 2 -7 -4 -17 0 -24 8 -19 23 -34 18 -84 -28
-45 -42 -46 -45 -46 -104 0 -34 -3 -68 -6 -77 -7 -19 -26 -22 -22 -3 1 6 -4
27 -12 45 -16 34 -46 43 -57 16 -8 -21 -22 0 -24 36 -1 17 -4 12 -9 -15 -4
-22 -7 66 -7 195 -1 129 1 227 4 217 5 -18 6 -18 19 2 11 15 12 26 4 40 -11
22 -4 50 14 52 6 1 -5 5 -24 9 -27 6 -18 8 43 9 67 1 77 -1 76 -16z m694 7
c-38 -15 -27 -33 17 -28 22 2 40 0 40 -5 0 -4 13 -36 29 -70 16 -34 48 -109
71 -167 61 -150 63 -151 105 -72 14 26 24 40 23 32 -2 -8 0 -16 5 -17 31 -11
67 15 67 48 0 19 45 97 65 112 5 4 18 5 28 3 14 -3 23 5 33 31 16 37 12 69 -7
57 -15 -9 0 38 15 48 12 8 9 9 -43 14 -23 1 -40 -3 -48 -14 -13 -15 -13 -14
-7 8 3 14 8 26 9 28 1 2 36 2 77 0 l75 -3 -48 -115 c-26 -63 -70 -171 -99
-240 -66 -161 -113 -260 -123 -260 -4 0 -5 5 -1 12 5 8 2 9 -9 5 -10 -3 -17
-2 -17 4 0 6 -7 3 -16 -5 -29 -30 -76 -16 -97 30 -9 19 -13 34 -8 34 5 0 12
-6 14 -12 4 -9 6 -9 6 -2 1 7 -8 22 -19 35 -17 21 -19 21 -14 4 5 -14 4 -17
-4 -10 -6 6 -27 51 -47 100 -20 50 -48 111 -61 138 -23 44 -114 270 -114 282
0 3 28 5 63 4 47 0 57 -2 40 -9z m-826 -52 c-3 -7 -5 -2 -5 12 0 14 2 19 5 13
2 -7 2 -19 0 -25z m1313 -42 c0 -3 -4 -8 -10 -11 -5 -3 -10 -1 -10 4 0 6 5 11
10 11 6 0 10 -2 10 -4z m-1002 -26 c-7 -11 -17 -20 -22 -20 -5 0 -1 9 9 20 10
11 20 20 22 20 2 0 -2 -9 -9 -20z m861 -29 c-6 -18 -13 -30 -15 -28 -2 2 1 18
7 36 6 18 13 30 15 28 2 -2 -1 -18 -7 -36z m118 4 c0 -8 -4 -12 -9 -9 -5 3 -6
10 -3 15 9 13 12 11 12 -6z m-166 -132 c-12 -20 -14 -14 -5 12 4 9 9 14 11 11
3 -2 0 -13 -6 -23z"/>
<path d="M5678 8983 c7 -3 16 -2 19 1 4 3 -2 6 -13 5 -11 0 -14 -3 -6 -6z"/>
<path d="M3205 8490 c-19 -8 -19 -9 3 -9 12 -1 22 4 22 9 0 6 -1 10 -2 9 -2 0
-12 -4 -23 -9z"/>
<path d="M3131 8449 c-13 -5 -22 -11 -20 -14 8 -7 49 7 49 16 0 5 -1 9 -2 8
-2 0 -14 -5 -27 -10z"/>
<path d="M5395 8430 c-10 -11 -23 -20 -30 -20 -7 0 -24 -11 -39 -25 -15 -14
-31 -23 -36 -20 -5 3 -14 -4 -20 -15 -18 -33 11 -25 53 15 20 19 44 35 52 35
8 0 15 3 15 8 0 4 12 15 28 24 17 11 21 18 11 18 -9 0 -24 -9 -34 -20z"/>
<path d="M2927 8313 c-13 -12 -7 -25 6 -14 8 6 17 8 20 4 4 -3 7 -1 7 5 0 13
-22 16 -33 5z"/>
<path d="M2795 8219 c-35 -33 -78 -69 -83 -69 -3 0 -37 -28 -76 -62 -83 -71
-239 -228 -228 -228 4 0 -5 -8 -21 -18 -31 -21 -26 -35 9 -22 32 12 61 43 56
60 -3 7 0 10 7 6 6 -4 11 -3 11 2 0 5 9 12 21 15 11 3 23 15 26 26 3 12 10 21
17 21 15 0 156 143 156 159 0 7 4 10 9 6 6 -3 20 8 32 25 13 16 28 30 34 30 6
0 22 14 37 30 23 27 18 43 -7 19z"/>
<path d="M2344 7786 c-6 -6 -24 -21 -40 -33 -23 -19 -26 -25 -15 -35 11 -10
12 -10 7 0 -4 7 -1 12 8 12 8 0 24 14 36 31 22 30 25 47 4 25z"/>
<path d="M2264 7694 c4 -12 2 -15 -9 -10 -25 9 -105 -76 -105 -113 0 -11 20
-11 30 -1 3 3 18 11 34 18 16 7 26 16 22 19 -3 3 5 21 19 39 26 34 33 64 14
64 -6 0 -8 -7 -5 -16z"/>
<path d="M6052 7559 c-38 -28 -42 -35 -41 -72 1 -38 2 -39 8 -13 3 17 8 29 11
27 3 -1 13 1 23 4 17 7 54 72 45 80 -2 3 -23 -9 -46 -26z"/>
<path d="M4254 7464 c-4 -14 -2 -30 5 -37 8 -8 11 -1 11 26 0 43 -7 48 -16 11z"/>
<path d="M5334 7348 c-3 -4 4 -8 15 -8 12 0 21 4 21 8 0 5 -7 9 -15 9 -9 0
-18 -4 -21 -9z"/>
<path d="M5155 7280 c-17 -18 -17 -20 -1 -20 9 0 19 7 23 15 9 25 -2 27 -22 5z"/>
<path d="M2151 6940 c1 -25 3 -28 6 -12 4 18 9 23 25 18 29 -7 80 4 75 18 -2
6 -27 11 -55 11 l-52 1 1 -36z"/>
<path d="M3185 6752 c-5 -4 -11 -12 -12 -18 -2 -9 4 -9 22 0 14 6 25 14 25 19
0 9 -22 9 -35 -1z"/>
<path d="M1821 6538 c0 -31 2 -59 7 -61 4 -3 6 16 4 41 -5 73 -10 82 -11 20z"/>
<path d="M3944 6415 c0 -60 1 -84 3 -52 2 32 2 81 0 110 -2 29 -3 3 -3 -58z"/>
<path d="M3304 6426 c-31 -14 -74 -64 -74 -85 0 -6 -6 -10 -12 -8 -8 1 -14
-11 -15 -33 l-1 -35 8 30 8 30 2 -30 c1 -16 7 -46 14 -65 33 -93 203 -93 251
0 31 60 12 156 -36 184 -39 23 -108 29 -145 12z"/>
<path d="M3944 6095 c0 -88 2 -123 3 -77 2 46 2 118 0 160 -1 42 -3 5 -3 -83z"/>
<path d="M1912 6055 c-18 -8 -35 -21 -38 -30 -3 -8 -9 -13 -13 -11 -3 2 -8
-12 -11 -32 -7 -52 -4 -663 4 -704 9 -49 57 -78 130 -78 64 0 104 17 135 56
20 26 21 37 21 371 0 387 -2 402 -64 428 -44 19 -121 19 -164 0z"/>
<path d="M1823 5925 c0 -27 2 -38 4 -22 2 15 2 37 0 50 -2 12 -4 0 -4 -28z"/>
<path d="M1822 5560 c0 -19 2 -27 5 -17 2 9 2 25 0 35 -3 9 -5 1 -5 -18z"/>
<path d="M1823 5430 c0 -36 2 -50 4 -32 2 17 2 47 0 65 -2 17 -4 3 -4 -33z"/>
<path d="M1923 4880 c-38 -12 -73 -54 -73 -87 0 -18 -4 -24 -15 -20 -16 7 -28
-7 -32 -36 -2 -10 1 -15 7 -12 5 3 10 1 10 -4 0 -6 7 -11 15 -11 10 0 15 -11
15 -35 l0 -36 143 3 142 3 3 76 c3 87 -7 121 -42 144 -30 20 -129 28 -173 15z"/>
<path d="M1843 4494 c-9 -25 4 -136 18 -145 7 -4 24 -6 38 -4 14 1 74 3 134 4
l107 1 0 80 0 80 -145 0 c-123 0 -147 -2 -152 -16z"/>
<path d="M6012 6920 c1 -46 3 -53 5 -23 3 31 10 46 25 54 14 7 23 8 27 1 4 -7
13 -5 25 4 18 13 17 14 -16 14 -20 0 -40 -5 -44 -12 -5 -8 -10 -6 -15 8 -5 11
-7 -7 -7 -46z"/>
<path d="M8501 6964 c0 -11 3 -14 6 -6 3 7 2 16 -1 19 -3 4 -6 -2 -5 -13z"/>
<path d="M6012 6820 c0 -14 2 -19 5 -12 2 6 2 18 0 25 -3 6 -5 1 -5 -13z"/>
<path d="M6891 6429 c-53 -11 -93 -58 -99 -117 -10 -106 31 -152 134 -152 113
0 177 107 124 209 -10 21 -27 42 -37 46 -36 15 -89 21 -122 14z"/>
<path d="M6767 6309 c-3 -12 -2 -31 3 -42 7 -18 9 -14 9 21 1 46 -4 54 -12 21z"/>
<path d="M7554 6131 c-18 -11 -38 -29 -46 -40 -8 -12 -17 -18 -21 -15 -3 3 -3
-5 0 -18 5 -23 5 -23 -10 -3 -16 20 -16 19 -10 -4 4 -16 2 -22 -5 -18 -8 6
-10 -20 -2 -30 2 -2 3 -9 4 -15 1 -7 7 -12 14 -10 7 1 12 -7 12 -17 0 -29 46
-78 85 -91 53 -17 102 -3 146 42 57 59 62 116 17 181 -40 57 -125 74 -184 38z"/>
<path d="M8055 5986 c-50 -22 -67 -50 -74 -120 -4 -36 -4 -63 -1 -61 3 2 12
-10 19 -26 17 -39 58 -59 122 -59 49 0 55 3 97 46 44 46 44 47 40 105 -5 65
-23 93 -75 115 -40 17 -89 17 -128 0z"/>
<path d="M7725 5880 c-4 -6 -11 -7 -17 -4 -7 4 -8 2 -4 -5 6 -9 11 -9 22 0 14
11 18 19 10 19 -3 0 -8 -5 -11 -10z"/>
<path d="M7051 5514 c0 -11 3 -14 6 -6 3 7 2 16 -1 19 -3 4 -6 -2 -5 -13z"/>
<path d="M8042 5435 c-18 -8 -35 -21 -38 -30 -3 -8 -10 -12 -15 -9 -5 3 -6 -1
-3 -9 3 -8 -2 -21 -10 -30 -19 -18 -20 -38 -5 -89 22 -81 90 -118 177 -96 73
18 121 102 99 175 -6 21 -10 42 -9 46 2 5 -2 6 -8 2 -5 -3 -10 -1 -10 5 0 5
-15 19 -32 30 -39 23 -99 25 -146 5z"/>
<path d="M8510 5213 c-77 -40 -105 -143 -57 -214 54 -81 195 -72 239 15 25 49
25 94 2 143 -31 63 -119 89 -184 56z"/>
<path d="M8205 5170 c4 -6 11 -8 16 -5 14 9 11 15 -7 15 -8 0 -12 -5 -9 -10z"/>
<path d="M8057 4876 c-50 -18 -64 -32 -72 -67 -4 -16 -11 -31 -16 -34 -16 -10
-10 -44 16 -95 27 -53 42 -65 96 -75 53 -10 110 17 143 68 23 35 27 49 22 87
-8 67 -9 69 -17 65 -4 -3 -9 2 -12 9 -16 40 -101 62 -160 42z"/>
<path d="M8477 4633 c-71 -54 -73 -149 -6 -216 38 -39 40 -39 99 -35 70 5 102
29 125 94 8 21 14 30 15 20 0 -11 2 -17 5 -14 7 7 -20 111 -36 136 -18 29 -52
42 -113 42 -42 0 -60 -6 -89 -27z"/>
<path d="M8203 4620 c-13 -5 -23 -14 -23 -20 0 -6 11 -3 25 6 14 9 25 18 25
20 0 5 0 5 -27 -6z"/>
<path d="M8732 3940 c0 -14 2 -19 5 -12 2 6 2 18 0 25 -3 6 -5 1 -5 -13z"/>
<path d="M5601 6423 c0 -65 2 -73 11 -50 5 15 14 24 20 20 11 -6 8 12 -7 50
-4 9 -3 17 3 17 6 0 13 -14 17 -31 9 -39 40 -36 40 4 -1 22 3 26 20 22 15 -5
13 0 -10 19 -19 16 -42 26 -62 26 l-33 0 1 -77z"/>
<path d="M4335 6220 c-3 -5 -2 -10 4 -10 5 0 13 5 16 10 3 6 2 10 -4 10 -5 0
-13 -4 -16 -10z"/>
<path d="M4695 6158 c-7 -23 -7 -34 -6 -625 l1 -583 450 0 450 0 -2 608 -3
607 -443 3 c-349 2 -443 0 -447 -10z m557 -290 c-8 -8 -12 -45 -12 -99 l0 -88
38 -4 37 -4 -42 -1 -43 -2 0 93 c0 84 8 117 29 117 3 0 0 -5 -7 -12z m-289
-13 c-3 -9 -8 -14 -10 -11 -3 3 -2 9 2 15 9 16 15 13 8 -4z m84 -142 c-2 -27
-3 -5 -3 47 0 52 1 74 3 48 2 -27 2 -69 0 -95z m280 85 c-2 -13 -4 -5 -4 17
-1 22 1 32 4 23 2 -10 2 -28 0 -40z m0 -105 c-2 -16 -4 -3 -4 27 0 30 2 43 4
28 2 -16 2 -40 0 -55z m-64 -291 c-7 -4 -16 -19 -22 -32 -9 -22 -10 -23 -10
-4 -1 21 16 44 34 44 6 0 5 -4 -2 -8z m-300 -22 c-3 -12 -8 -19 -11 -16 -5 6
5 36 12 36 2 0 2 -9 -1 -20z m84 -137 c-2 -27 -3 -5 -3 47 0 52 1 74 3 48 2
-27 2 -69 0 -95z m280 75 c-2 -13 -4 -3 -4 22 0 25 2 35 4 23 2 -13 2 -33 0
-45z m-49 -111 l37 -4 -42 -1 -43 -2 2 68 2 67 3 -62 4 -62 37 -4z m49 31 c-2
-13 -4 -5 -4 17 -1 22 1 32 4 23 2 -10 2 -28 0 -40z"/>
<path d="M5767 4920 c3 -11 7 -20 8 -20 1 0 5 9 8 20 3 12 0 20 -8 20 -8 0
-11 -8 -8 -20z"/>
<path d="M5188 4922 c-32 -2 -58 -7 -58 -12 0 -6 64 -10 155 -10 85 0 155 4
155 8 0 5 -28 9 -62 9 -35 1 -79 3 -98 5 -19 2 -61 2 -92 0z"/>
<path d="M5500 4910 c0 -6 7 -10 15 -10 8 0 15 2 15 4 0 2 -7 6 -15 10 -8 3
-15 1 -15 -4z"/>
<path d="M5810 4910 c0 -5 14 -10 30 -10 17 0 33 0 37 -1 4 0 9 4 11 10 2 7
-12 11 -37 11 -23 0 -41 -4 -41 -10z"/>
<path d="M4542 4770 c0 -14 2 -19 5 -12 2 6 2 18 0 25 -3 6 -5 1 -5 -13z"/>
<path d="M5602 4750 c0 -19 2 -27 5 -17 2 9 2 25 0 35 -3 9 -5 1 -5 -18z"/>
<path d="M4542 4670 c0 -19 2 -27 5 -17 2 9 2 25 0 35 -3 9 -5 1 -5 -18z"/>
<path d="M4280 3684 c0 -8 5 -12 10 -9 6 3 10 10 10 16 0 5 -4 9 -10 9 -5 0
-10 -7 -10 -16z"/>
<path d="M4281 3620 c0 -36 2 -41 10 -27 7 12 7 27 0 45 -9 25 -9 24 -10 -18z"/>
<path d="M3541 5154 c0 -11 3 -14 6 -6 3 7 2 16 -1 19 -3 4 -6 -2 -5 -13z"/>
<path d="M3823 5083 c9 -2 25 -2 35 0 9 3 1 5 -18 5 -19 0 -27 -2 -17 -5z"/>
<path d="M2851 4999 c-1 -24 5 -42 19 -54 19 -18 20 -17 20 3 0 12 -6 25 -14
29 -8 4 -16 19 -19 33 -3 19 -5 17 -6 -11z"/>
<path d="M3195 4971 c-47 -12 -75 -30 -125 -80 -42 -42 -56 -67 -74 -136 -3
-11 -4 -3 -1 17 3 31 1 35 -10 25 -7 -6 -12 -13 -10 -15 2 -2 -1 -17 -5 -33
-7 -22 -5 -29 6 -29 12 0 14 -76 16 -502 l3 -503 100 -1 c55 -1 106 3 113 9 7
5 13 36 14 76 l1 66 7 -55 c4 -30 7 -43 8 -28 1 15 7 30 12 33 6 3 10 19 10
36 0 16 5 29 10 29 6 0 10 -12 10 -26 0 -14 4 -23 9 -19 5 3 12 -7 14 -22 2
-16 6 6 7 47 4 72 4 71 9 -35 l6 -110 98 -3 98 -3 -3 543 c-2 442 -6 549 -17
573 -8 17 -14 33 -13 37 4 16 -35 50 -90 78 -61 32 -149 46 -203 31z m55 -370
c0 -5 -7 -12 -16 -15 -14 -5 -15 -4 -4 9 14 17 20 19 20 6z m67 -83 c-3 -7 -5
-2 -5 12 0 14 2 19 5 13 2 -7 2 -19 0 -25z m-71 -258 c8 0 12 -4 9 -10 -3 -5
-13 -10 -21 -10 -12 0 -14 23 -12 133 l2 132 3 -122 c3 -102 6 -123 19 -123z
m83 73 c-1 -39 -3 -50 -8 -34 -6 24 -3 91 5 91 2 0 4 -26 3 -57z m-49 -10 c0
-62 -11 -67 -14 -6 -2 37 2 63 10 63 2 0 4 -25 4 -57z m-30 -347 c0 -3 -4 -8
-10 -11 -5 -3 -10 -1 -10 4 0 6 5 11 10 11 6 0 10 -2 10 -4z"/>
<path d="M2862 4820 c0 -19 2 -27 5 -17 2 9 2 25 0 35 -3 9 -5 1 -5 -18z"/>
<path d="M3533 4665 c0 -27 2 -38 4 -22 2 15 2 37 0 50 -2 12 -4 0 -4 -28z"/>
<path d="M3652 4125 c0 -16 2 -22 5 -12 2 9 2 23 0 30 -3 6 -5 -1 -5 -18z"/>
<path d="M3533 4085 c0 -33 2 -45 4 -27 2 18 2 45 0 60 -2 15 -4 0 -4 -33z"/>
<path d="M3531 3854 c0 -11 3 -14 6 -6 3 7 2 16 -1 19 -3 4 -6 -2 -5 -13z"/>
<path d="M6405 5031 c-3 -6 -11 -9 -16 -6 -5 4 -9 -1 -9 -9 0 -9 4 -16 9 -16
5 0 17 -3 27 -7 12 -4 15 -3 10 5 -5 8 0 12 13 12 12 0 21 5 21 10 0 6 -4 10
-9 10 -5 0 -16 3 -24 6 -8 3 -18 0 -22 -5z"/>
<path d="M6939 4967 c-54 -20 -127 -86 -152 -137 -22 -45 -22 -50 -25 -583
l-3 -538 98 3 98 3 3 122 c2 101 5 123 20 134 14 11 15 11 5 -1 -9 -9 -13 -45
-12 -100 0 -80 1 -84 16 -62 18 25 33 29 33 7 0 -8 6 -15 14 -15 10 0 16 14
19 43 2 23 4 7 5 -39 2 -64 5 -83 18 -88 29 -11 199 -7 212 6 9 9 12 136 12
508 0 542 -2 564 -57 632 -17 20 -19 26 -7 16 31 -27 41 -22 14 7 -13 13 -51
39 -84 56 -71 37 -167 48 -227 26z m49 -371 c-16 -12 -18 -33 -18 -187 0 -154
2 -171 15 -153 13 18 14 18 15 1 0 -10 5 -15 10 -12 6 3 10 1 10 -4 0 -6 -13
-11 -30 -11 l-30 0 0 178 c0 176 5 203 35 202 5 0 2 -7 -7 -14z m32 -303 c0
-8 6 -13 14 -11 8 2 14 -1 13 -7 -4 -18 -33 -11 -43 10 -8 16 -7 22 3 22 7 0
13 -7 13 -14z"/>
<path d="M6623 4840 c-1 -93 1 -109 9 -83 7 22 8 59 1 115 l-10 83 0 -115z"/>
<path d="M6651 4824 c0 -11 3 -14 6 -6 3 7 2 16 -1 19 -3 4 -6 -2 -5 -13z"/>
<path d="M6671 4756 c1 -82 6 -90 19 -33 5 23 4 39 -4 47 -8 8 -8 13 1 18 8 5
8 12 -3 26 -12 17 -14 11 -13 -58z"/>
<path d="M6723 4664 c9 -175 24 -170 29 9 3 99 2 107 -16 107 -18 0 -18 -7
-13 -116z"/>
<path d="M7368 4655 c-3 -14 -2 -25 2 -25 5 0 6 -9 3 -20 -3 -11 0 -20 6 -20
6 0 10 17 9 40 -2 47 -14 61 -20 25z"/>
<path d="M7376 4565 c4 -8 8 -15 10 -15 2 0 4 7 4 15 0 8 -4 15 -10 15 -5 0
-7 -7 -4 -15z"/>
<path d="M6725 4470 c-3 -5 -1 -18 4 -27 9 -16 10 -14 11 10 0 28 -5 34 -15
17z"/>
<path d="M6624 3940 c0 -80 2 -112 3 -72 2 39 2 105 0 145 -1 39 -3 7 -3 -73z"/>
<path d="M6727 3993 c-4 -43 -3 -96 1 -118 l8 -40 7 60 c5 51 0 163 -8 173 -1
1 -5 -32 -8 -75z"/>
<path d="M6321 3653 c1 -53 6 -49 11 10 2 20 0 37 -4 37 -4 0 -8 -21 -7 -47z"/>
<path d="M4992 3885 c0 -16 2 -22 5 -12 2 9 2 23 0 30 -3 6 -5 -1 -5 -18z"/>
<path d="M4992 3820 c0 -19 2 -27 5 -17 2 9 2 25 0 35 -3 9 -5 1 -5 -18z"/>
<path d="M4580 2600 c-28 -17 62 -27 150 -16 14 2 38 -1 54 -5 30 -9 171 9
161 19 -9 9 -350 11 -365 2z"/>
<path d="M5360 2601 l-25 -7 25 -6 c22 -6 39 -5 90 1 11 2 9 5 -5 11 -24 10
-51 11 -85 1z"/>
<path d="M3733 2593 c43 -2 110 -2 150 0 40 1 5 3 -78 3 -82 0 -115 -2 -72 -3z"/>
<path d="M4008 2593 c12 -2 32 -2 45 0 12 2 2 4 -23 4 -25 0 -35 -2 -22 -4z"/>
<path d="M5013 2593 c20 -2 54 -2 75 0 20 2 3 4 -38 4 -41 0 -58 -2 -37 -4z"/>
<path d="M5273 2593 c9 -2 25 -2 35 0 9 3 1 5 -18 5 -19 0 -27 -2 -17 -5z"/>
<path d="M5848 2593 c6 -2 18 -2 25 0 6 3 1 5 -13 5 -14 0 -19 -2 -12 -5z"/>
<path d="M5898 2593 c7 -3 16 -2 19 1 4 3 -2 6 -13 5 -11 0 -14 -3 -6 -6z"/>
<path d="M5993 2593 c15 -2 39 -2 55 0 15 2 2 4 -28 4 -30 0 -43 -2 -27 -4z"/>
<path d="M6748 2593 c7 -3 16 -2 19 1 4 3 -2 6 -13 5 -11 0 -14 -3 -6 -6z"/>
<path d="M4798 2503 c7 -3 16 -2 19 1 4 3 -2 6 -13 5 -11 0 -14 -3 -6 -6z"/>
<path d="M4471 1794 c0 -11 3 -14 6 -6 3 7 2 16 -1 19 -3 4 -6 -2 -5 -13z"/>
<path d="M4820 1736 c0 -2 7 -9 15 -16 12 -10 15 -10 15 4 0 9 -7 16 -15 16
-8 0 -15 -2 -15 -4z"/>
<path d="M5251 2094 c0 -11 3 -14 6 -6 3 7 2 16 -1 19 -3 4 -6 -2 -5 -13z"/>
<path d="M5266 2057 c3 -10 9 -15 12 -12 3 3 0 11 -7 18 -10 9 -11 8 -5 -6z"/>
<path d="M8075 8210 c-3 -5 -1 -10 4 -10 6 0 11 5 11 10 0 6 -2 10 -4 10 -3 0
-8 -4 -11 -10z"/>
<path d="M8702 8100 c0 -14 2 -19 5 -12 2 6 2 18 0 25 -3 6 -5 1 -5 -13z"/>
<path d="M8712 7420 c0 -19 2 -27 5 -17 2 9 2 25 0 35 -3 9 -5 1 -5 -18z"/>
<path d="M9306 7057 c-10 -7 -29 -21 -41 -32 -73 -67 -105 -93 -142 -119 -39
-26 -87 -85 -78 -95 3 -2 16 4 29 13 14 9 36 16 49 16 14 0 42 17 66 39 24 22
49 42 57 45 8 3 14 10 14 16 0 15 26 41 33 34 4 -5 47 79 47 92 0 7 -15 3 -34
-9z"/>
<path d="M1336 6973 c-6 -14 -5 -15 5 -6 7 7 10 15 7 18 -3 3 -9 -2 -12 -12z"/>
<path d="M9024 6800 c3 -14 6 -28 6 -32 0 -5 4 -8 9 -8 12 0 9 20 -8 45 -12
19 -12 19 -7 -5z"/>
<path d="M1246 6775 c-3 -9 -6 -22 -5 -28 0 -7 5 -1 10 12 5 13 8 26 5 28 -2
2 -6 -3 -10 -12z"/>
<path d="M1156 6535 c-3 -9 -6 -24 -5 -33 0 -9 5 -4 10 12 9 32 6 48 -5 21z"/>
<path d="M1131 6444 c0 -11 3 -14 6 -6 3 7 2 16 -1 19 -3 4 -6 -2 -5 -13z"/>
<path d="M9302 4910 c0 -14 2 -19 5 -12 2 6 2 18 0 25 -3 6 -5 1 -5 -13z"/>
<path d="M9107 3933 c-10 -9 -9 -43 2 -43 5 0 11 6 14 13 6 17 -7 40 -16 30z"/>
<path d="M9084 3863 c-3 -10 -14 -40 -25 -67 -21 -53 -24 -76 -10 -76 9 0 25
56 22 76 -1 7 5 14 12 17 8 3 14 19 15 36 1 34 -6 40 -14 14z"/>
<path d="M8220 2441 c0 -11 -27 -38 -156 -156 -175 -160 -198 -181 -264 -234
-36 -28 -85 -68 -108 -89 -24 -20 -51 -41 -60 -46 -10 -5 -23 -18 -30 -28 -7
-10 -22 -18 -32 -18 -11 0 -24 -9 -30 -20 -6 -11 -18 -20 -26 -20 -18 0 -44
-24 -44 -41 0 -7 8 -2 19 9 10 12 21 18 25 15 4 -4 10 -2 14 4 13 21 102 83
120 83 9 0 28 12 41 25 13 14 28 25 33 25 5 0 21 9 35 20 14 11 29 17 34 14 5
-3 12 2 15 10 3 9 10 16 15 16 5 0 25 18 45 40 20 22 42 40 49 40 7 0 26 15
42 33 39 44 99 88 108 79 5 -4 5 -1 1 6 -4 6 -3 12 1 12 13 0 83 68 83 80 0 5
7 10 16 10 8 0 12 5 9 10 -3 6 2 10 12 10 15 0 16 2 3 10 -13 8 -12 10 3 10
18 0 41 45 31 61 -3 5 4 9 14 9 11 0 22 7 26 15 4 11 -1 15 -19 15 -14 0 -25
-4 -25 -9z"/>
<path d="M7440 1779 c0 -5 5 -7 10 -4 6 3 10 8 10 11 0 2 -4 4 -10 4 -5 0 -10
-5 -10 -11z"/>
<path d="M7395 1750 c-3 -5 -15 -10 -26 -10 -10 0 -19 -4 -19 -9 0 -5 10 -6
23 -3 24 6 55 32 38 32 -5 0 -13 -4 -16 -10z"/>
<path d="M7294 1695 c-10 -8 -14 -15 -7 -15 19 0 43 11 43 21 0 13 -14 11 -36
-6z"/>
<path d="M7223 1657 c-32 -14 -29 -29 5 -21 34 8 38 12 26 23 -5 5 -19 4 -31
-2z"/>
<path d="M7138 1603 c6 -2 18 -2 25 0 6 3 1 5 -13 5 -14 0 -19 -2 -12 -5z"/>
</g>
</svg>
